<svg width="20" height="20" viewBox="0 0 20 20" fill="none" xmlns="http://www.w3.org/2000/svg">
<path d="M10.0009 0C7.28508 0 6.94424 0.0118752 5.87756 0.0604169C4.81297 0.109167 4.08629 0.277708 3.45045 0.525C2.79274 0.780417 2.23481 1.12208 1.67898 1.67813C1.12272 2.23396 0.78105 2.79187 0.524797 3.44937C0.276878 4.08542 0.108126 4.81229 0.0602089 5.87646C0.0125 6.94312 0 7.28417 0 10C0 12.7158 0.0120837 13.0556 0.0604175 14.1223C0.109376 15.1869 0.27792 15.9135 0.525006 16.5494C0.780633 17.2071 1.1223 17.765 1.67835 18.3208C2.23398 18.8771 2.7919 19.2196 3.4492 19.475C4.08546 19.7223 4.81234 19.8908 5.87673 19.9396C6.94341 19.9881 7.28403 20 9.99969 20C12.7158 20 13.0556 19.9881 14.1222 19.9396C15.1868 19.8908 15.9143 19.7223 16.5506 19.475C17.2081 19.2196 17.7652 18.8771 18.3208 18.3208C18.8771 17.765 19.2187 17.2071 19.475 16.5496C19.7208 15.9135 19.8896 15.1867 19.9396 14.1225C19.9875 13.0558 20 12.7158 20 10C20 7.28417 19.9875 6.94333 19.9396 5.87667C19.8896 4.81208 19.7208 4.08542 19.475 3.44958C19.2187 2.79187 18.8771 2.23396 18.3208 1.67813C17.7646 1.12188 17.2083 0.780208 16.55 0.525C15.9125 0.277708 15.1854 0.109167 14.1208 0.0604169C13.0541 0.0118752 12.7145 0 9.99781 0H10.0009ZM9.10385 1.80208C9.3701 1.80167 9.66718 1.80208 10.0009 1.80208C12.671 1.80208 12.9874 1.81167 14.0418 1.85958C15.0168 1.90417 15.546 2.06708 15.8985 2.20396C16.3652 2.38521 16.6979 2.60187 17.0477 2.95187C17.3977 3.30187 17.6143 3.63521 17.796 4.10187C17.9329 4.45396 18.096 4.98312 18.1404 5.95812C18.1883 7.01229 18.1987 7.32896 18.1987 9.99771C18.1987 12.6665 18.1883 12.9831 18.1404 14.0373C18.0958 15.0123 17.9329 15.5415 17.796 15.8935C17.6148 16.3602 17.3977 16.6925 17.0477 17.0423C16.6977 17.3923 16.3654 17.609 15.8985 17.7902C15.5464 17.9277 15.0168 18.0902 14.0418 18.1348C12.9876 18.1827 12.671 18.1931 10.0009 18.1931C7.3307 18.1931 7.01424 18.1827 5.96006 18.1348C4.98505 18.0898 4.45588 17.9269 4.10317 17.79C3.6365 17.6087 3.30316 17.3921 2.95316 17.0421C2.60315 16.6921 2.38648 16.3596 2.20481 15.8927C2.06794 15.5406 1.90481 15.0115 1.86044 14.0365C1.81252 12.9823 1.80294 12.6656 1.80294 9.99521C1.80294 7.32479 1.81252 7.00979 1.86044 5.95563C1.90502 4.98063 2.06794 4.45146 2.20481 4.09896C2.38607 3.63229 2.60315 3.29896 2.95316 2.94896C3.30316 2.59896 3.6365 2.38229 4.10317 2.20062C4.45567 2.06312 4.98505 1.90063 5.96006 1.85583C6.88257 1.81417 7.24008 1.80167 9.10385 1.79958V1.80208ZM15.3389 3.4625C14.6764 3.4625 14.1389 3.99937 14.1389 4.66208C14.1389 5.32458 14.6764 5.86208 15.3389 5.86208C16.0014 5.86208 16.5389 5.32458 16.5389 4.66208C16.5389 3.99958 16.0014 3.46208 15.3389 3.46208V3.4625ZM10.0009 4.86458C7.16487 4.86458 4.86547 7.16396 4.86547 10C4.86547 12.836 7.16487 15.1344 10.0009 15.1344C12.837 15.1344 15.1356 12.836 15.1356 10C15.1356 7.16396 12.8368 4.86458 10.0007 4.86458H10.0009ZM10.0009 6.66667C11.8418 6.66667 13.3343 8.15896 13.3343 10C13.3343 11.8408 11.8418 13.3333 10.0009 13.3333C8.15988 13.3333 6.66757 11.8408 6.66757 10C6.66757 8.15896 8.15988 6.66667 10.0009 6.66667Z" fill="#C2BCD2"/>
</svg>
