<svg width="50" height="62" viewBox="0 0 50 62" fill="none" xmlns="http://www.w3.org/2000/svg">
<path d="M3.79809 39.4431C-1.71052 27.5609 2.42071 7.04046 3.53979 2.09521C3.68586 1.44974 4.26162 1 4.92341 1H45.0766C45.7384 1 46.3141 1.44974 46.4602 2.09521C47.5793 7.04046 51.7105 27.5609 46.2019 39.4431C41.8692 48.7888 29.0892 58.1484 25.7863 60.4595C25.3088 60.7936 24.6912 60.7936 24.2137 60.4595C20.9108 58.1484 8.13077 48.7888 3.79809 39.4431Z" stroke="#C2BCD2" stroke-width="1.44578"/>
<mask id="path-2-inside-1_206_179" fill="white">
<path fill-rule="evenodd" clip-rule="evenodd" d="M25 18C19.6445 18 14.9446 20.713 12.2907 24.7949C12.0117 25.224 12.0117 25.776 12.2907 26.2051C14.9446 30.287 19.6445 33 25 33C30.3555 33 35.0554 30.287 37.7093 26.2051C37.9883 25.776 37.9883 25.224 37.7093 24.7949C35.0554 20.713 30.3555 18 25 18ZM25 28C26.6569 28 28 26.6569 28 25C28 23.3431 26.6569 22 25 22C23.3432 22 22 23.3431 22 25C22 26.6569 23.3432 28 25 28Z"/>
</mask>
<path d="M37.7093 26.2051L36.4972 25.417L37.7093 26.2051ZM37.7093 24.7949L36.4972 25.583L37.7093 24.7949ZM13.5029 25.583C15.8933 21.9063 20.1398 19.4458 25 19.4458V16.5542C19.1493 16.5542 13.9959 19.5198 11.0786 24.0068L13.5029 25.583ZM25 31.5542C20.1398 31.5542 15.8933 29.0937 13.5029 25.417L11.0786 26.9932C13.9959 31.4802 19.1493 34.4458 25 34.4458V31.5542ZM36.4972 25.417C34.1068 29.0937 29.8602 31.5542 25 31.5542V34.4458C30.8507 34.4458 36.0041 31.4802 38.9214 26.9932L36.4972 25.417ZM25 19.4458C29.8602 19.4458 34.1068 21.9063 36.4972 25.583L38.9214 24.0068C36.0041 19.5198 30.8507 16.5542 25 16.5542V19.4458ZM26.5542 25C26.5542 25.8584 25.8584 26.5542 25 26.5542V29.4458C27.4554 29.4458 29.4458 27.4553 29.4458 25H26.5542ZM25 23.4458C25.8584 23.4458 26.5542 24.1416 26.5542 25H29.4458C29.4458 22.5447 27.4554 20.5542 25 20.5542V23.4458ZM23.4458 25C23.4458 24.1416 24.1416 23.4458 25 23.4458V20.5542C22.5447 20.5542 20.5542 22.5447 20.5542 25H23.4458ZM25 26.5542C24.1416 26.5542 23.4458 25.8584 23.4458 25H20.5542C20.5542 27.4553 22.5447 29.4458 25 29.4458V26.5542ZM38.9214 26.9932C39.512 26.0849 39.512 24.9152 38.9214 24.0068L36.4972 25.583C36.4646 25.5329 36.4646 25.4671 36.4972 25.417L38.9214 26.9932ZM11.0786 24.0068C10.4881 24.9152 10.4881 26.0849 11.0786 26.9932L13.5029 25.417C13.5354 25.4671 13.5354 25.5329 13.5029 25.583L11.0786 24.0068Z" fill="#C2BCD2" mask="url(#path-2-inside-1_206_179)"/>
</svg>
