<svg width="22" height="13" viewBox="0 0 22 13" fill="none" xmlns="http://www.w3.org/2000/svg">
<path d="M3.23201 0H0.8252C0.137541 0 0 0.322094 0 0.677266C0 1.31155 0.815964 4.4575 3.79925 8.61825C5.7881 11.4597 8.59025 13 11.1401 13C12.67 13 12.8592 12.6579 12.8592 12.0686V9.92105C12.8592 9.23684 13.0042 9.10029 13.4886 9.10029C13.8456 9.10029 14.4576 9.27788 15.8855 10.6479C17.5174 12.2716 17.7864 13 18.7043 13H21.1112C21.7988 13 22.1426 12.6579 21.9443 11.9828C21.7272 11.3099 20.9481 10.3337 19.9143 9.17639C19.3533 8.51677 18.5118 7.80643 18.2568 7.45117C17.8999 6.99456 18.0019 6.79155 18.2568 6.38565L18.2997 6.32523C18.6623 5.81236 21.211 2.17596 21.4952 0.880275C21.6481 0.372856 21.4952 0 20.7673 0H18.3605C17.7485 0 17.4664 0.322094 17.3134 0.677266C17.3134 0.677266 16.0895 3.64563 14.3556 5.57378C13.7946 6.13192 13.5396 6.30951 13.2336 6.30951C13.0807 6.30951 12.8592 6.13192 12.8592 5.62455V0.880275C12.8592 0.271372 12.6816 0 12.1716 0H8.38945C8.00703 0 7.77703 0.282606 7.77703 0.550442C7.77703 1.12767 8.64393 1.26079 8.73329 2.88453V6.41103C8.73329 7.18421 8.59295 7.32439 8.28696 7.32439C7.47104 7.32439 5.48631 4.34276 4.30919 0.930996C4.0785 0.267868 3.84712 0 3.23201 0Z" fill="#C2BCD2"/>
</svg>
